HIERARCHY
ROOT Hips
{
	OFFSET	0.00	0.00	0.00
	CHANNELS 6 Xposition Yposition Zposition Zrotation Xrotation Yrotation
	JOINT LeftUpLeg
	{
		OFFSET	 0.126116	-0.065224	 0.014019
		CHANNELS 3 Zrotation Xrotation Yrotation
		JOINT LeftLeg
		{
			OFFSET	 0.000000	 0.569914	 0.000000
			CHANNELS 3 Zrotation Xrotation Yrotation
			JOINT LeftFoot
			{
				OFFSET	 0.000000	 0.544423	 0.000000
				CHANNELS 3 Zrotation Xrotation Yrotation
				JOINT LeftToeBase
				{
					OFFSET	 0.000000	 0.207117	 0.000000
					CHANNELS 3 Zrotation Xrotation Yrotation
					End Site
					{
						OFFSET	 0.000000	 0.207117	 0.000000
					}
				}
			}
		}
	}
	JOINT RightUpLeg
	{
		OFFSET	-0.124023	-0.065224	 0.008373
		CHANNELS 3 Zrotation Xrotation Yrotation
		JOINT RightLeg
		{
			OFFSET	 0.000000	 0.570047	 0.000000
			CHANNELS 3 Zrotation Xrotation Yrotation
			JOINT RightFoot
			{
				OFFSET	 0.000000	 0.544354	 0.000000
				CHANNELS 3 Zrotation Xrotation Yrotation
				JOINT RightToeBase
				{
					OFFSET	 0.000000	 0.207540	 0.000000
					CHANNELS 3 Zrotation Xrotation Yrotation
					End Site
					{
						OFFSET	 0.000000	 0.207540	 0.000000
					}
				}
			}
		}
	}
	JOINT Spine
	{
		OFFSET	 0.000184	 0.117403	 0.007763
		CHANNELS 3 Zrotation Xrotation Yrotation
		JOINT Spine1
		{
			OFFSET	 0.000000	 0.137269	 0.000000
			CHANNELS 3 Zrotation Xrotation Yrotation
			JOINT Spine2
			{
				OFFSET	 0.000000	 0.156879	 0.000000
				CHANNELS 3 Zrotation Xrotation Yrotation
				JOINT LeftShoulder
				{
					OFFSET	 0.080501	 0.160143	 0.002496
					CHANNELS 3 Zrotation Xrotation Yrotation
					JOINT LeftArm
					{
						OFFSET	 0.000000	 0.164363	 0.000000
						CHANNELS 3 Zrotation Xrotation Yrotation
						JOINT LeftForeArm
						{
							OFFSET	 0.000000	 0.364576	 0.000000
							CHANNELS 3 Zrotation Xrotation Yrotation
							JOINT LeftHand
							{
								OFFSET	 0.000000	 0.360812	 0.000000
								CHANNELS 3 Zrotation Xrotation Yrotation
								JOINT LeftHandIndex1
								{
									OFFSET	 0.000000	 0.086006	 0.000000
									CHANNELS 3 Zrotation Xrotation Yrotation
									JOINT LeftHandIndex2
									{
										OFFSET	 0.000000	 0.047237	 0.000000
										CHANNELS 3 Zrotation Xrotation Yrotation
										JOINT LeftHandIndex3
										{
											OFFSET	-0.004284	 0.038165	 0.000551
											CHANNELS 3 Zrotation Xrotation Yrotation
											End Site
											{
												OFFSET	-0.004284	 0.038165	 0.000551
											}
										}
									}
								}
							}
						}
					}
				}
				JOINT Neck
				{
					OFFSET	 0.000000	 0.176489	 0.000000
					CHANNELS 3 Zrotation Xrotation Yrotation
					JOINT Head
					{
						OFFSET	 0.000000	 0.077941	 0.001747
						CHANNELS 3 Zrotation Xrotation Yrotation
						End Site
						{
							OFFSET	 0.000000	 0.077941	 0.001747
						}
					}
				}
				JOINT RightShoulder
				{
					OFFSET	-0.080363	 0.159706	-0.000306
					CHANNELS 3 Zrotation Xrotation Yrotation
					JOINT RightArm
					{
						OFFSET	 0.000000	 0.164196	 0.000000
						CHANNELS 3 Zrotation Xrotation Yrotation
						JOINT RightForeArm
						{
							OFFSET	 0.000000	 0.365611	 0.000000
							CHANNELS 3 Zrotation Xrotation Yrotation
							JOINT RightHand
							{
								OFFSET	 0.000000	 0.360648	 0.000000
								CHANNELS 3 Zrotation Xrotation Yrotation
								JOINT RightHandIndex1
								{
									OFFSET	 0.000000	 0.069977	 0.000000
									CHANNELS 3 Zrotation Xrotation Yrotation
									JOINT RightHandIndex2
									{
										OFFSET	 0.000000	 0.052305	 0.000000
										CHANNELS 3 Zrotation Xrotation Yrotation
										JOINT RightHandIndex3
										{
											OFFSET	 0.009002	 0.042196	 0.000782
											CHANNELS 3 Zrotation Xrotation Yrotation
											End Site
											{
												OFFSET	 0.009002	 0.042196	 0.000782
											}
										}
									}
								}
							}
						}
					}
				}
			}
		}
	}
}
MOTION
Frames:    12
Frame Time: 0.03333334
 0.436636	 1.273931	 0.406694	 0.553154	-2.420111	-177.253500	-179.227400	 6.889073	-11.920830	 3.478912	-12.866630	 5.980907	 5.373074	 69.802890	-1.596077	 1.292262	 28.425850	-2.713146	 176.691100	 7.703761	 13.547380	-2.060439	-10.595160	 0.843645	 0.635587	 66.212460	-5.823520	-1.288183	 28.361890	 2.710176	 0.169703	 6.477068	 0.228027	-0.068756	-6.780350	-0.022796	 0.627664	 7.914687	-0.585100	-117.466300	-0.782057	 89.957490	 11.512180	-0.528961	-7.079763	 4.935027	-0.401129	 34.703570	 5.068207	-0.675427	-2.079236	-6.580301	 5.266122	 0.000000	 0.000000	 0.000000	 0.000000	 0.000000	 0.000000	 0.000000	 4.799944	 27.131630	 1.708980	-4.041769	-16.199270	-0.059948	 116.298900	-0.443303	-90.568050	-11.696850	-3.191680	 20.547590	-5.078305	 0.121009	-57.184680	-8.845888	-1.581313	 13.552600	 15.208500	 5.323790	 0.000000	 0.000000	 0.000000	 0.000000	 0.000000	 0.000000	 0.000000
 0.436749	 1.274152	 0.407159	 0.578309	-2.604626	-177.247300	-179.205000	 7.056817	-11.909840	 3.448585	-12.758290	 5.989260	 5.426678	 69.705580	-1.627396	 1.292262	 28.425850	-2.713146	 176.707100	 7.858140	 13.547130	-2.033832	-10.461450	 0.826410	 0.526890	 66.109440	-5.741443	-1.288183	 28.361890	 2.710176	 0.183684	 6.390271	 0.232284	-0.092445	-6.974671	-0.025142	 0.643384	 8.093043	-0.591365	-117.531500	-0.801959	 89.948610	 11.533660	-0.095775	-6.887920	 4.907156	-0.398863	 34.524960	 5.088171	-1.004715	-1.801622	-6.580301	 5.266122	 0.000000	 0.000000	 0.000000	 0.000000	 0.000000	 0.000000	 0.000000	 4.845315	 27.274370	 1.671325	-4.047310	-16.270570	-0.053273	 116.401700	-0.471689	-90.558270	-11.708290	-2.749897	 20.464290	-5.049689	 0.120317	-57.052910	-8.756873	-1.847039	 13.158510	 15.208500	 5.323790	 0.000000	 0.000000	 0.000000	 0.000000	 0.000000	 0.000000	 0.000000
 0.436896	 1.274711	 0.407999	 0.605010	-2.883467	-177.235300	-179.181700	 7.208419	-11.886760	 3.341818	-12.376120	 6.001830	 5.552357	 69.433240	-1.682499	 1.292262	 28.425850	-2.713146	 176.726400	 7.965117	 13.551870	-1.940033	-9.989024	 0.790639	 0.293026	 65.808100	-5.590136	-1.288183	 28.361890	 2.710176	 0.191434	 6.344311	 0.244816	-0.126975	-7.417455	-0.030550	 0.670585	 8.508234	-0.606095	-117.686900	-0.849291	 89.927370	 11.616610	 0.106902	-6.486165	 4.872333	-0.396010	 34.105400	 5.473873	-1.009495	-1.243017	-6.580301	 5.266122	 0.000000	 0.000000	 0.000000	 0.000000	 0.000000	 0.000000	 0.000000	 4.954050	 27.614270	 1.580923	-4.060491	-16.440450	-0.037251	 116.646700	-0.539234	-90.534770	-11.756900	-2.596920	 20.318180	-5.010357	 0.119391	-56.748220	-9.037124	-1.742626	 12.372220	 15.208500	 5.323790	 0.000000	 0.000000	 0.000000	 0.000000	 0.000000	 0.000000	 0.000000
 0.437073	 1.275503	 0.409133	 0.614113	-3.197972	-177.217700	-179.175300	 7.288354	-11.854370	 3.165533	-11.742490	 6.015068	 5.718305	 69.006570	-1.735902	 1.292262	 28.425850	-2.713146	 176.733100	 7.993382	 13.558540	-1.793615	-9.249051	 0.742385	-0.027386	 65.351410	-5.395476	-1.288183	 28.361890	 2.710176	 0.177748	 6.354331	 0.262505	-0.172691	-8.006157	-0.041926	 0.707118	 9.075171	-0.626213	-117.904500	-0.915496	 89.897440	 11.739770	-0.054137	-5.957625	 4.836094	-0.393038	 33.530470	 6.203959	-0.599359	-0.541621	-6.580301	 5.266122	 0.000000	 0.000000	 0.000000	 0.000000	 0.000000	 0.000000	 0.000000	 5.108000	 28.090260	 1.452548	-4.078942	-16.678320	-0.014522	 116.990000	-0.633722	-90.501340	-11.818410	-2.850573	 20.145250	-4.969809	 0.118394	-56.341490	-9.699018	-1.216729	 11.380630	 15.208500	 5.323790	 0.000000	 0.000000	 0.000000	 0.000000	 0.000000	 0.000000	 0.000000
 0.437314	 1.276717	 0.410854	 0.603904	-3.598398	-177.192300	-179.186100	 7.250479	-11.806710	 2.856743	-10.625440	 6.027381	 5.941736	 68.282280	-1.771592	 1.292262	 28.425850	-2.713146	 176.728700	 7.866859	 13.567760	-1.537299	-7.945838	 0.676107	-0.490357	 64.567630	-5.141747	-1.288183	 28.361890	 2.710176	 0.136977	 6.422287	 0.288971	-0.233901	-8.817554	-0.062370	 0.757241	 9.877642	-0.654423	-118.220200	-1.011306	 89.853550	 11.911960	-0.699324	-5.232634	 4.791333	-0.389416	 32.721450	 7.450748	 0.388559	 0.357541	-6.580301	 5.266122	 0.000000	 0.000000	 0.000000	 0.000000	 0.000000	 0.000000	 0.000000	 5.334718	 28.780180	 1.262703	-4.105671	-17.023050	 0.019025	 117.487900	-0.770363	-90.451860	-11.879810	-3.653816	 19.933430	-4.916110	 0.117145	-55.791370	-10.923100	-0.112635	 10.087550	 15.208500	 5.323790	 0.000000	 0.000000	 0.000000	 0.000000	 0.000000	 0.000000	 0.000000
 0.437302	 1.275760	 0.409721	 0.631149	-3.465292	-177.225100	-179.155900	 7.519342	-11.853700	 3.120105	-11.578700	 6.004814	 5.718417	 68.873240	-1.730122	 1.292262	 28.425850	-2.713146	 176.728800	 8.301666	 13.561500	-1.790745	-9.234530	 0.744479	-0.037910	 65.295780	-5.388587	-1.288183	 28.361890	 2.710176	 0.178767	 6.081573	 0.265216	-0.341598	-7.948736	-0.049282	 0.785308	 9.042057	-0.625558	-117.899700	-0.914028	 89.898110	 11.664910	 1.592647	-5.845502	 4.771745	-0.387841	 33.542610	 5.505159	-2.221010	-0.377938	-6.580301	 5.266122	 0.000000	 0.000000	 0.000000	 0.000000	 0.000000	 0.000000	 0.000000	 5.104579	 28.079750	 1.455405	-4.078537	-16.673030	-0.015031	 116.982400	-0.631627	-90.502080	-11.749870	-0.912697	 20.019820	-4.897432	 0.116694	-56.350430	-8.702864	-2.812261	 11.166900	 15.208500	 5.323790	 0.000000	 0.000000	 0.000000	 0.000000	 0.000000	 0.000000	 0.000000
 0.437178	 1.274745	 0.409780	 0.673794	-3.482615	-177.222700	-179.124100	 8.028798	-11.850220	 3.398264	-12.578310	 6.064606	 5.758617	 69.406760	-1.881557	 1.292262	 28.425850	-2.713146	 176.742400	 8.808764	 13.563230	-1.993061	-10.256300	 0.707760	 0.069197	 65.835660	-5.378485	-1.288183	 28.361890	 2.710176	 0.220460	 6.089823	 0.265770	-0.352675	-7.589235	-0.042450	 0.791320	 8.885126	-0.625039	-117.906800	-0.916218	 89.897110	 11.934910	 3.211155	-5.707278	 4.805594	-0.390606	 33.524030	 4.575219	-3.616362	-0.405850	-6.580301	 5.266122	 0.000000	 0.000000	 0.000000	 0.000000	 0.000000	 0.000000	 0.000000	 5.109674	 28.095400	 1.451149	-4.079142	-16.680870	-0.014274	 116.993700	-0.634734	-90.500980	-12.194770	 0.817874	 19.898950	-4.939641	 0.117754	-56.337250	-7.355106	-4.001564	 11.120530	 15.208500	 5.323790	 0.000000	 0.000000	 0.000000	 0.000000	 0.000000	 0.000000	 0.000000
 0.437163	 1.274751	 0.416036	 0.764432	-4.557245	-177.112300	-179.084700	 9.645535	-11.669910	 3.500766	-12.944640	 6.344969	 6.707362	 69.180950	-2.627801	 1.292262	 28.425850	-2.713146	 176.755200	 10.132150	 13.596030	-1.967257	-10.126260	 0.342290	-1.115081	 65.461520	-4.423395	-1.288183	 28.361890	 2.710176	 0.220817	 6.778869	 0.360279	-0.427768	-8.942406	-0.081980	 0.905313	 11.048270	-0.719821	-119.042100	-1.259494	 89.736890	 13.961830	 5.233736	-2.809236	 4.867779	-0.395647	 30.742520	 5.909309	-3.404597	 2.352667	-6.580301	 5.266122	 0.000000	 0.000000	 0.000000	 0.000000	 0.000000	 0.000000	 0.000000	 5.944938	 30.573530	 0.747289	-4.175051	-17.919260	 0.109595	 118.784700	-1.123996	-90.317500	-14.546110	 2.370341	 18.844550	-5.017288	 0.119548	-54.557080	-7.382864	-2.674684	 6.873965	 15.208500	 5.323790	 0.000000	 0.000000	 0.000000	 0.000000	 0.000000	 0.000000	 0.000000
 0.436965	 1.273729	 0.426411	 0.930804	-6.055590	-176.959800	-179.016600	 12.371460	-11.416440	 3.867316	-14.245440	 6.766694	 7.995805	 69.199940	-3.711381	 1.292262	 28.425850	-2.713146	 176.770200	 12.469660	 13.625600	-2.100924	-10.798410	-0.150009	-2.553272	 65.293790	-3.201179	-1.288183	 28.361890	 2.710176	 0.261406	 7.681271	 0.507839	-0.476708	-9.670467	-0.109239	 1.032766	 13.436580	-0.833438	-120.553100	-1.710833	 89.513370	 17.781550	 9.817011	 0.794612	 4.939080	-0.401433	 27.501870	 5.898170	-4.100375	 4.867983	-6.580301	 5.266122	 0.000000	 0.000000	 0.000000	 0.000000	 0.000000	 0.000000	 0.000000	 7.148868	 33.855490	-0.286733	-4.301632	-19.560360	 0.287998	 121.169400	-1.765303	-90.049910	-18.942490	 6.435215	 17.609570	-5.108542	 0.121713	-52.900460	-5.265646	-2.043058	 2.558505	 15.208500	 5.323790	 0.000000	 0.000000	 0.000000	 0.000000	 0.000000	 0.000000	 0.000000
 0.437425	 1.272285	 0.441980	 1.122030	-8.504460	-176.709000	-179.037600	 16.454400	-11.005810	 4.259804	-15.621200	 7.489158	 10.212010	 68.812580	-5.537887	 1.292262	 28.425850	-2.713146	 176.714300	 16.163450	 13.705880	-2.261903	-11.603690	-0.937798	-4.863253	 64.818450	-1.271451	-1.288183	 28.361890	 2.710176	 0.288017	 8.942618	 0.768618	-0.459417	-10.106090	-0.101476	 1.159976	 16.504590	-1.027000	-122.668100	-1.933156	 89.384930	 24.053690	 15.076240	 4.608467	 4.956729	-0.402812	 23.483030	 6.144419	-3.070339	 6.746975	-6.580301	 5.266122	 0.000000	 0.000000	 0.000000	 0.000000	 0.000000	 0.000000	 0.000000	 9.034479	 38.183420	-1.980855	-4.454127	-21.861280	 0.537315	 124.515200	-2.290702	-89.818280	-23.366070	 11.759670	 16.097580	-9.897061	 0.234924	-51.137830	-1.397598	 1.728875	-1.655537	 15.208500	 5.323790	 0.000000	 0.000000	 0.000000	 0.000000	 0.000000	 0.000000	 0.000000
 0.475355	 1.116169	 0.603989	-6.480194	-40.659930	-177.143200	 145.256600	 76.673440	 20.679250	 18.830030	-50.542890	 28.962770	 52.230850	 67.724690	-48.072700	 1.292262	 28.425850	-2.713146	 133.154000	 80.874920	 45.474540	-16.374690	-55.714470	-24.619260	-52.696410	 63.633460	 47.141510	-1.288183	 28.361890	 2.710176	 0.170002	 11.174500	 1.467961	-0.446909	 4.129644	 0.221452	-1.516174	 12.139570	-4.147274	-126.011400	 26.302090	 104.990000	 50.842080	 9.158299	 6.157233	 4.880383	-0.396647	 1.236588	 23.769580	-17.565280	 13.779380	-6.580301	 5.266122	 0.000000	 0.000000	 0.000000	 0.000000	 0.000000	 0.000000	 0.000000	 9.467354	 41.684970	-4.842872	-4.399034	-46.060260	-1.278101	 130.527800	 26.702670	-107.334700	-46.729690	 7.208246	 13.169590	-23.505470	 0.545202	-21.598970	-3.929503	-24.724980	-10.378640	 15.208500	 5.323790	 0.000000	 0.000000	 0.000000	 0.000000	 0.000000	 0.000000	 0.000000
 0.479077	 1.053657	 0.611791	-7.555573	-41.663010	-178.175800	 107.672100	 82.422990	 57.823220	 29.207050	-61.435280	 37.282490	 62.326840	 70.517040	-58.779610	 1.292262	 28.425850	-2.713146	 67.234730	 85.482090	 110.347300	-25.851790	-66.212300	-33.163560	-60.593360	 65.645130	 55.510640	-1.288183	 28.361890	 2.710176	-0.120779	 11.581860	 0.991546	-0.658036	 5.664734	-0.273985	-1.845993	 11.628430	-4.338413	-126.987100	 28.474890	 106.551900	 51.865660	 7.603112	 9.295579	 4.815435	-0.391364	-15.945220	 22.914080	-10.804620	 18.125580	-6.580301	 5.266122	 0.000000	 0.000000	 0.000000	 0.000000	 0.000000	 0.000000	 0.000000	 10.348150	 42.308180	-4.920876	-5.474107	-47.788790	-1.449546	 129.026700	 28.194340	-107.703500	-52.834060	 3.665173	 12.432070	-20.503130	 0.478747	-19.210350	-3.756160	-24.934190	-11.420580	 15.208500	 5.323790	 0.000000	 0.000000	 0.000000	 0.000000	 0.000000	 0.000000	 0.000000
